<svg height="512" id="Слой_1" version="1.1" width="512" xml:space="preserve" xmlns="http://www.w3.org/2000/svg"><path d="M125.016 62.969c0 34.797-27.983 62.985-62.517 62.985C28 125.954 0 97.766 0 62.969 0 28.203 28 0 62.499 0c34.533 0 62.517 28.203 62.517 62.969zm-9.142 107.672H10.156V512h105.718V170.641zm168.97 0H183.468V512h101.376V332.812c0-48 22.107-76.563 64.404-76.563 38.875 0 57.563 27.422 57.563 76.563V512H512V295.875c0-91.468-51.846-135.641-124.252-135.641-72.422 0-102.904 56.407-102.904 56.407v-46z" id="Linkedin_1_"/></svg>