<svg xmlns="http://www.w3.org/2000/svg"><symbol id="apps-icon" viewBox="0 0 16 16"><path fill-rule="evenodd" clip-rule="evenodd" d="M2 4c1.1 0 2-.9 2-2s-.9-2-2-2-2 .9-2 2 .9 2 2 2zm6 12c1.1 0 2-.9 2-2s-.9-2-2-2-2 .9-2 2 .9 2 2 2zm-4-2c0 1.1-.9 2-2 2s-2-.9-2-2 .9-2 2-2 2 .9 2 2zm-2-4c1.1 0 2-.9 2-2s-.9-2-2-2-2 .9-2 2 .9 2 2 2zm8-2c0 1.1-.9 2-2 2s-2-.9-2-2 .9-2 2-2 2 .9 2 2zm2-6c0 1.1.9 2 2 2s2-.9 2-2-.9-2-2-2-2 .9-2 2zm-2 0c0 1.1-.9 2-2 2s-2-.9-2-2 .9-2 2-2 2 .9 2 2zm4 8c1.1 0 2-.9 2-2s-.9-2-2-2-2 .9-2 2 .9 2 2 2zm2 4c0 1.1-.9 2-2 2s-2-.9-2-2 .9-2 2-2 2 .9 2 2z"/></symbol><symbol id="az-icon" viewBox="0 0 19 17"><path d="M10.388.319a.433.433 0 00-.621 0l-1.76 1.758h4.13L10.388.32zM9.775 16.68a.433.433 0 00.622 0l1.732-1.732H8.052l1.723 1.732zm-1.093-3.167a.741.741 0 00.69-1.015L6.11 4.15a1.054 1.054 0 00-1.96 0L.877 12.49a.741.741 0 00.69 1.015.758.758 0 00.7-.481l.622-1.663H7.36l.622 1.663c.113.297.393.49.7.49zm-5.26-3.579L5.12 5.402l1.698 4.533H3.423zm14.07 2.188H12.83l5.005-7.254a.877.877 0 00-.717-1.374h-5.67a.695.695 0 00-.692.7v.009a.7.7 0 00.692.7H15.9l-5.013 7.245a.877.877 0 00.717 1.374h5.88a.693.693 0 00.691-.692.679.679 0 00-.682-.708z"/></symbol><symbol id="circular-arrow-icon" viewBox="0 0 16 16"><path d="M13.645 2.35A7.958 7.958 0 007.995 0C3.575 0 .005 3.58.005 8s3.57 8 7.99 8c3.73 0 6.84-2.55 7.73-6h-2.08a5.99 5.99 0 01-5.65 4c-3.31 0-6-2.69-6-6s2.69-6 6-6c1.66 0 3.14.69 4.22 1.78L8.995 7h7V0l-2.35 2.35z"/></symbol><symbol id="filter-icon" viewBox="0 0 16 16"><path d="M3.005 2h10l-5.01 6.3L3.005 2zm-2.75-.39C2.275 4.2 6.005 9 6.005 9v6c0 .55.45 1 1 1h2c.55 0 1-.45 1-1V9s3.72-4.8 5.74-7.39a.998.998 0 00-.79-1.61H1.045c-.83 0-1.3.95-.79 1.61z"/></symbol><symbol id="grid-icon" viewBox="0 0 18 18"><path d="M0 0v8h8V0H0zm6 6H2V2h4v4zm-6 4v8h8v-8H0zm6 6H2v-4h4v4zm4-16v8h8V0h-8zm6 6h-4V2h4v4zm-6 4v8h8v-8h-8zm6 6h-4v-4h4v4z"/></symbol><symbol id="list-icon" viewBox="0 0 18 10"><path d="M0 6h2V4H0v2zm0 4h2V8H0v2zm0-8h2V0H0v2zm4 4h14V4H4v2zm0 4h14V8H4v2zM4 0v2h14V0H4zM0 6h2V4H0v2zm0 4h2V8H0v2zm0-8h2V0H0v2zm4 4h14V4H4v2zm0 4h14V8H4v2zM4 0v2h14V0H4z"/></symbol><symbol id="modified-icon" viewBox="0 0 17 11"><path d="M7.625 10.75h1.75a.878.878 0 00.875-.875A.878.878 0 009.375 9h-1.75a.878.878 0 00-.875.875c0 .481.394.875.875.875zm-7-9.625c0 .481.394.875.875.875h14a.878.878 0 00.875-.875A.878.878 0 0015.5.25h-14a.878.878 0 00-.875.875zm3.5 5.25h8.75a.878.878 0 00.875-.875.878.878 0 00-.875-.875h-8.75a.878.878 0 00-.875.875c0 .481.394.875.875.875z"/></symbol><symbol id="question-icon" viewBox="0 0 20 20"><path fill-rule="evenodd" clip-rule="evenodd" d="M0 10C0 4.48 4.48 0 10 0s10 4.48 10 10-4.48 10-10 10S0 15.52 0 10zm11 4v2H9v-2h2zm-1 4c-4.41 0-8-3.59-8-8s3.59-8 8-8 8 3.59 8 8-3.59 8-8 8zM6 8c0-2.21 1.79-4 4-4s4 1.79 4 4c0 1.283-.79 1.973-1.56 2.646C11.712 11.283 11 11.905 11 13H9c0-1.821.942-2.543 1.77-3.178C11.42 9.324 12 8.879 12 8c0-1.1-.9-2-2-2s-2 .9-2 2H6z"/></symbol><symbol id="search-icon" viewBox="0 0 18 18"><path d="M12.755 11.255h-.79l-.28-.27a6.471 6.471 0 001.57-4.23 6.5 6.5 0 10-6.5 6.5c1.61 0 3.09-.59 4.23-1.57l.27.28v.79l5 4.99 1.49-1.49-4.99-5zm-6 0c-2.49 0-4.5-2.01-4.5-4.5s2.01-4.5 4.5-4.5 4.5 2.01 4.5 4.5-2.01 4.5-4.5 4.5z"/></symbol><symbol id="search-options-icon" viewBox="0 0 18 18"><path fill-rule="evenodd" clip-rule="evenodd" d="M14 6h-2V0h2v2h4v2h-4v2zM0 4V2h10v2H0zm0 12v-2h6v2H0zm10 2v-2h8v-2h-8v-2H8v6h2zM4 8V6h2v6H4v-2H0V8h4zm14 2V8H8v2h10z"/></symbol><symbol id="settings-icon" viewBox="0 0 22 22"><path fill-rule="evenodd" clip-rule="evenodd" d="M14.31 20.03c-.1.68-.72 1.22-1.46 1.22h-3.7c-.74 0-1.36-.54-1.45-1.27l-.27-1.89c-.27-.14-.53-.29-.79-.46l-1.8.72c-.7.26-1.47-.03-1.81-.65L1.2 14.53c-.35-.66-.2-1.44.36-1.88l1.53-1.19c-.01-.15-.02-.3-.02-.46 0-.15.01-.31.02-.46L1.57 9.35C.98 8.9.83 8.09 1.2 7.47l1.85-3.19c.34-.62 1.11-.9 1.79-.63l1.81.73c.26-.17.52-.32.78-.46l.27-1.91c.09-.7.71-1.25 1.44-1.25h3.7c.74 0 1.36.54 1.45 1.27l.27 1.89c.27.14.53.29.79.46l1.8-.72c.71-.26 1.48.03 1.82.65l1.84 3.18c.36.66.2 1.44-.36 1.88l-1.52 1.19c.01.15.02.3.02.46 0 .16-.01.31-.02.46l1.52 1.19c.56.45.72 1.23.37 1.86l-1.86 3.22c-.34.62-1.11.9-1.8.63l-1.8-.72c-.26.17-.52.32-.78.46l-.27 1.91zm-4.69-.78h2.76l.37-2.55.53-.22c.44-.18.88-.44 1.34-.78l.45-.34 2.38.96 1.38-2.4-2.03-1.58.07-.56.003-.027c.029-.25.057-.492.057-.753 0-.27-.03-.53-.06-.78l-.07-.56 2.03-1.58-1.39-2.4-2.39.96-.45-.35c-.42-.32-.87-.58-1.33-.77l-.52-.22-.37-2.55H9.62L9.25 5.3l-.53.21c-.44.19-.88.44-1.34.79l-.45.33-2.38-.95-1.39 2.39 2.03 1.58-.07.56a7 7 0 00-.06.79c0 .26.02.53.06.78l.07.56-2.03 1.58 1.38 2.4 2.39-.96.45.35c.43.33.86.58 1.33.77l.53.22.38 2.55zM14.5 11a3.5 3.5 0 11-7 0 3.5 3.5 0 017 0z"/></symbol><symbol id="up-down-arrows-icon" viewBox="0 0 13 17"><path d="M3.565.936l-2.44 2.44a.433.433 0 00.305.745h1.567v5.258c0 .482.393.875.875.875a.878.878 0 00.875-.875V4.121h1.566a.433.433 0 00.306-.744L4.178.936a.438.438 0 00-.613 0zm6.432 11.952V7.63a.878.878 0 00-.875-.875.878.878 0 00-.875.875v5.26H6.68a.433.433 0 00-.306.743l2.441 2.432a.45.45 0 00.622 0l2.44-2.432c.28-.271.08-.744-.305-.744H9.997z"/></symbol><symbol id="vertical-dots-icon" viewBox="0 0 4 16"><path d="M2 4c1.1 0 2-.9 2-2s-.9-2-2-2-2 .9-2 2 .9 2 2 2zm0 2C.9 6 0 6.9 0 8s.9 2 2 2 2-.9 2-2-.9-2-2-2zm0 6c-1.1 0-2 .9-2 2s.9 2 2 2 2-.9 2-2-.9-2-2-2z"/></symbol></svg>